<svg width="24" height="24" viewBox="0 0 24 24" fill="none" xmlns="http://www.w3.org/2000/svg">
<g clip-path="url(#clip0_8_57)">
<path fill-rule="evenodd" clip-rule="evenodd" d="M4.5 6C4.5 5.58579 4.83579 5.25 5.25 5.25H6.75V3.75C6.75 3.33579 7.08579 3 7.5 3C7.91421 3 8.25 3.33579 8.25 3.75V5.25H9.75C10.1642 5.25 10.5 5.58579 10.5 6C10.5 6.41421 10.1642 6.75 9.75 6.75H8.25V8.25C8.25 8.66421 7.91421 9 7.5 9C7.08579 9 6.75 8.66421 6.75 8.25V6.75H5.25C4.83579 6.75 4.5 6.41421 4.5 6V6ZM17.25 18H16.5V17.25C16.5 16.8358 16.1642 16.5 15.75 16.5C15.3358 16.5 15 16.8358 15 17.25V18H14.25C13.8358 18 13.5 18.3358 13.5 18.75C13.5 19.1642 13.8358 19.5 14.25 19.5H15V20.25C15 20.6642 15.3358 21 15.75 21C16.1642 21 16.5 20.6642 16.5 20.25V19.5H17.25C17.6642 19.5 18 19.1642 18 18.75C18 18.3358 17.6642 18 17.25 18V18ZM22.5 13.5H21V12C21 11.5858 20.6642 11.25 20.25 11.25C19.8358 11.25 19.5 11.5858 19.5 12V13.5H18C17.5858 13.5 17.25 13.8358 17.25 14.25C17.25 14.6642 17.5858 15 18 15H19.5V16.5C19.5 16.9142 19.8358 17.25 20.25 17.25C20.6642 17.25 21 16.9142 21 16.5V15H22.5C22.9142 15 23.25 14.6642 23.25 14.25C23.25 13.8358 22.9142 13.5 22.5 13.5V13.5ZM20.5603 7.5L7.5 20.5603C6.91429 21.1456 5.96508 21.1456 5.37937 20.5603L3.43875 18.6216C3.15737 18.3402 2.99929 17.9587 2.99929 17.5608C2.99929 17.1629 3.15737 16.7813 3.43875 16.5L16.5 3.43969C16.7813 3.15831 17.1629 3.00023 17.5608 3.00023C17.9587 3.00023 18.3402 3.15831 18.6216 3.43969L20.5603 5.37844C20.8417 5.65975 20.9998 6.04133 20.9998 6.43922C20.9998 6.8371 20.8417 7.21869 20.5603 7.5V7.5ZM15.4388 10.5L13.5 8.56031L4.5 17.5603L6.43875 19.5L15.4388 10.5ZM19.5 6.43969L17.5603 4.5L14.5603 7.5L16.5 9.43969L19.5 6.43969Z" fill="#121417"/>
</g>
<defs>
<clipPath id="clip0_8_57">
<rect width="24" height="24" fill="white"/>
</clipPath>
</defs>
</svg>
