<svg width="24" height="24" viewBox="0 0 24 24" fill="none" xmlns="http://www.w3.org/2000/svg">
<g clip-path="url(#clip0_8_108)">
<path fill-rule="evenodd" clip-rule="evenodd" d="M16.3125 4.47656C15.1545 3.13916 13.8511 1.93486 12.4266 0.885938C12.1682 0.704968 11.8243 0.704968 11.5659 0.885938C10.144 1.9353 8.84317 3.13958 7.6875 4.47656C5.11031 7.43625 3.75 10.5563 3.75 13.5C3.75 18.0563 7.44365 21.75 12 21.75C16.5563 21.75 20.25 18.0563 20.25 13.5C20.25 10.5563 18.8897 7.43625 16.3125 4.47656V4.47656ZM12 20.25C8.27379 20.2459 5.25413 17.2262 5.25 13.5C5.25 8.13469 10.4503 3.65625 12 2.4375C13.5497 3.65625 18.75 8.13281 18.75 13.5C18.7459 17.2262 15.7262 20.2459 12 20.25V20.25ZM17.2397 14.3756C16.8414 16.6005 15.0996 18.3419 12.8747 18.7397C12.8334 18.7463 12.7918 18.7497 12.75 18.75C12.3599 18.7499 12.0351 18.4508 12.0028 18.0621C11.9705 17.6734 12.2415 17.3248 12.6263 17.2603C14.1797 16.9988 15.4978 15.6806 15.7612 14.1244C15.8306 13.7159 16.218 13.4409 16.6266 13.5103C17.0351 13.5797 17.31 13.9671 17.2406 14.3756H17.2397Z" fill="#121417"/>
</g>
<defs>
<clipPath id="clip0_8_108">
<rect width="24" height="24" fill="white"/>
</clipPath>
</defs>
</svg>
