<svg width="24" height="24" viewBox="0 0 24 24" fill="none" xmlns="http://www.w3.org/2000/svg">
<g clip-path="url(#clip0_8_67)">
<path fill-rule="evenodd" clip-rule="evenodd" d="M13.125 19.125C13.125 19.7463 12.6213 20.25 12 20.25C11.3787 20.25 10.875 19.7463 10.875 19.125C10.875 18.5037 11.3787 18 12 18C12.6213 18 13.125 18.5037 13.125 19.125V19.125ZM22.2262 8.15625C16.2808 3.27963 7.71918 3.27963 1.77375 8.15625C1.45351 8.41928 1.40713 8.89211 1.67016 9.21234C1.93318 9.53258 2.40601 9.57896 2.72625 9.31594C8.11817 4.89429 15.8818 4.89429 21.2738 9.31594C21.594 9.57896 22.0668 9.53258 22.3298 9.21234C22.5929 8.89211 22.5465 8.41928 22.2262 8.15625V8.15625ZM19.2188 11.5097C14.9905 8.16212 9.01513 8.16212 4.78687 11.5097C4.46223 11.767 4.40767 12.2388 4.665 12.5634C4.92233 12.8881 5.39411 12.9426 5.71875 12.6853C9.40113 9.77052 14.6045 9.77052 18.2869 12.6853C18.4428 12.8089 18.6414 12.8655 18.839 12.8426C19.0366 12.8198 19.2171 12.7194 19.3406 12.5634C19.4642 12.4075 19.5208 12.2089 19.498 12.0113C19.4751 11.8137 19.3747 11.6332 19.2188 11.5097V11.5097ZM16.1944 14.8622C13.6952 13.0458 10.3105 13.0458 7.81125 14.8622C7.47625 15.1061 7.40238 15.5753 7.64625 15.9103C7.89012 16.2453 8.35938 16.3192 8.69438 16.0753C10.6668 14.6409 13.3389 14.6409 15.3112 16.0753C15.6462 16.3192 16.1155 16.2453 16.3594 15.9103C16.6032 15.5753 16.5294 15.1061 16.1944 14.8622V14.8622Z" fill="#121417"/>
</g>
<defs>
<clipPath id="clip0_8_67">
<rect width="24" height="24" fill="white"/>
</clipPath>
</defs>
</svg>
