<svg width="24" height="24" viewBox="0 0 24 24" fill="none" xmlns="http://www.w3.org/2000/svg">
<g clip-path="url(#clip0_8_87)">
<path fill-rule="evenodd" clip-rule="evenodd" d="M18.75 4.5H12.75V1.5C12.75 1.08579 12.4142 0.75 12 0.75C11.5858 0.75 11.25 1.08579 11.25 1.5V4.5H5.25C3.59315 4.5 2.25 5.84315 2.25 7.5V18C2.25 19.6569 3.59315 21 5.25 21H18.75C20.4069 21 21.75 19.6569 21.75 18V7.5C21.75 5.84315 20.4069 4.5 18.75 4.5V4.5ZM20.25 18C20.25 18.8284 19.5784 19.5 18.75 19.5H5.25C4.42157 19.5 3.75 18.8284 3.75 18V7.5C3.75 6.67157 4.42157 6 5.25 6H18.75C19.5784 6 20.25 6.67157 20.25 7.5V18ZM15.375 12.75H8.625C7.17525 12.75 6 13.9253 6 15.375C6 16.8247 7.17525 18 8.625 18H15.375C16.8247 18 18 16.8247 18 15.375C18 13.9253 16.8247 12.75 15.375 12.75V12.75ZM12.75 14.25V16.5H11.25V14.25H12.75ZM7.5 15.375C7.5 14.7537 8.00368 14.25 8.625 14.25H9.75V16.5H8.625C8.00368 16.5 7.5 15.9963 7.5 15.375V15.375ZM15.375 16.5H14.25V14.25H15.375C15.9963 14.25 16.5 14.7537 16.5 15.375C16.5 15.9963 15.9963 16.5 15.375 16.5V16.5ZM6.75 10.125C6.75 9.50368 7.25368 9 7.875 9C8.49632 9 9 9.50368 9 10.125C9 10.7463 8.49632 11.25 7.875 11.25C7.25368 11.25 6.75 10.7463 6.75 10.125V10.125ZM15 10.125C15 9.50368 15.5037 9 16.125 9C16.7463 9 17.25 9.50368 17.25 10.125C17.25 10.7463 16.7463 11.25 16.125 11.25C15.5037 11.25 15 10.7463 15 10.125V10.125Z" fill="#121417"/>
</g>
<defs>
<clipPath id="clip0_8_87">
<rect width="24" height="24" fill="white"/>
</clipPath>
</defs>
</svg>
